<?xml version="1.0" standalone="no"?>
<!DOCTYPE svg PUBLIC "-//W3C//DTD SVG 20010904//EN"
 "http://www.w3.org/TR/2001/REC-SVG-20010904/DTD/svg10.dtd">
<svg version="1.0" xmlns="http://www.w3.org/2000/svg"
 width="144.000000pt" height="144.000000pt" viewBox="0 0 144.000000 144.000000"
 preserveAspectRatio="xMidYMid meet">
<metadata>
Created by potrace 1.14, written by Peter Selinger 2001-2017
</metadata>
<g transform="translate(0.000000,144.000000) scale(0.100000,-0.100000)"
fill="#000000" stroke="none">
<path d="M79 1228 c-1 -2 -2 -200 -3 -440 l-1 -438 183 0 c144 0 182 -3 176
-12 -6 -10 -4 -10 7 -1 8 8 41 13 84 13 l71 0 -2 62 c-1 35 -2 65 -3 68 0 3
-76 5 -169 5 -92 -1 -174 1 -182 3 -15 3 -18 67 -11 240 1 22 2 22 166 21 91
0 169 2 173 5 4 2 7 33 6 68 l-1 63 -171 0 c-147 0 -172 2 -173 15 -6 82 0
195 9 193 7 -2 9 4 5 14 -4 10 -2 14 4 10 6 -4 46 -7 89 -8 46 -1 82 -6 86
-13 6 -8 8 -7 8 2 0 8 18 12 58 12 33 0 64 -5 71 -12 8 -8 11 -8 8 -2 -4 7 2
14 12 17 17 4 19 13 17 58 l-3 54 -257 3 c-141 1 -257 1 -257 0z"/>
<path d="M743 790 l-1 -440 77 -1 c118 -1 314 2 331 5 44 8 100 28 106 37 3 6
12 8 20 5 8 -3 14 -1 14 5 0 15 26 39 34 32 3 -4 6 1 6 10 0 9 5 17 10 17 6 0
10 7 10 16 0 9 5 12 12 8 6 -4 8 -3 4 4 -3 6 -1 23 5 39 15 41 13 135 -5 178
-14 33 -63 98 -76 101 -3 1 -16 4 -29 9 -23 7 -23 7 8 26 17 10 39 32 49 49
11 16 21 28 23 26 4 -5 7 21 9 106 2 94 -49 167 -139 197 -21 7 -115 11 -251
11 l-216 0 -1 -440z m389 306 c46 -20 58 -36 64 -88 9 -94 -32 -121 -192 -124
l-112 -2 -1 113 c0 98 2 114 16 117 40 8 194 -3 225 -16z m-192 -359 c0 -9 2
-9 8 0 5 9 34 11 92 9 112 -4 154 -21 174 -71 12 -28 16 -66 7 -61 -4 3 -6 -8
-3 -23 5 -38 -38 -88 -89 -101 -21 -6 -84 -10 -139 -9 l-99 1 1 132 c1 130 2
132 25 134 13 1 23 -4 23 -11z"/>
<path d="M973 1055 c0 -8 4 -12 9 -9 5 3 6 10 3 15 -9 13 -12 11 -12 -6z"/>
<path d="M1135 1060 c3 -5 8 -10 11 -10 2 0 4 5 4 10 0 6 -5 10 -11 10 -5 0
-7 -4 -4 -10z"/>
<path d="M930 700 c0 -5 5 -10 11 -10 5 0 7 5 4 10 -3 6 -8 10 -11 10 -2 0 -4
-4 -4 -10z"/>
<path d="M1011 707 c2 -1 13 -9 24 -17 19 -14 19 -14 6 3 -7 9 -18 17 -24 17
-6 0 -8 -1 -6 -3z"/>
<path d="M375 1080 c-3 -5 -1 -10 4 -10 6 0 11 5 11 10 0 6 -2 10 -4 10 -3 0
-8 -4 -11 -10z"/>
<path d="M435 1060 c3 -5 8 -10 11 -10 2 0 4 5 4 10 0 6 -5 10 -11 10 -5 0 -7
-4 -4 -10z"/>
<path d="M370 736 c0 -2 8 -10 18 -17 15 -13 16 -12 3 4 -13 16 -21 21 -21 13z"/>
<path d="M416 702 c-3 -5 1 -9 9 -9 8 0 12 4 9 9 -3 4 -7 8 -9 8 -2 0 -6 -4
-9 -8z"/>
<path d="M149 323 c-13 -16 -12 -17 4 -4 16 13 21 21 13 21 -2 0 -10 -8 -17
-17z"/>
<path d="M1149 323 c-13 -16 -12 -17 4 -4 16 13 21 21 13 21 -2 0 -10 -8 -17
-17z"/>
<path d="M475 321 c-3 -5 -2 -12 3 -15 5 -3 9 1 9 9 0 17 -3 19 -12 6z"/>
<path d="M510 322 c0 -5 7 -9 15 -9 8 0 12 4 9 9 -3 4 -9 8 -15 8 -5 0 -9 -4
-9 -8z"/>
<path d="M910 316 c7 -7 13 -7 20 0 6 6 3 10 -10 10 -13 0 -16 -4 -10 -10z"/>
<path d="M955 320 c3 -5 8 -10 11 -10 2 0 4 5 4 10 0 6 -5 10 -11 10 -5 0 -7
-4 -4 -10z"/>
<path d="M1030 326 c0 -2 7 -7 16 -10 8 -3 12 -2 9 4 -6 10 -25 14 -25 6z"/>
<path d="M216 298 c3 -4 11 -5 19 -1 21 7 19 12 -4 10 -11 0 -18 -5 -15 -9z"/>
<path d="M330 306 c0 -2 7 -7 16 -10 8 -3 12 -2 9 4 -6 10 -25 14 -25 6z"/>
<path d="M810 305 c0 -7 30 -13 34 -7 3 4 -4 9 -15 9 -10 1 -19 0 -19 -2z"/>
<path d="M1010 300 c0 -5 5 -10 11 -10 5 0 7 5 4 10 -3 6 -8 10 -11 10 -2 0
-4 -4 -4 -10z"/>
<path d="M1095 301 c-3 -5 -2 -12 3 -15 5 -3 9 1 9 9 0 17 -3 19 -12 6z"/>
</g>
</svg>
